<?xml version="1.0" encoding="UTF-8"?>
<svg width="24px" height="24px" viewBox="0 0 24 24" version="1.1" xmlns="http://www.w3.org/2000/svg" xmlns:xlink="http://www.w3.org/1999/xlink">
    <!-- Generator: Sketch 52.2 (67145) - http://www.bohemiancoding.com/sketch -->
    <title>c</title>
    <desc>Created with Sketch.</desc>
    <g id="Page-1" stroke="none" stroke-width="1" fill="none" fill-rule="evenodd" opacity="0.6">
        <g id="loopnest" transform="translate(-658.000000, -4374.000000)" fill="#000000">
            <g id="footer" transform="translate(501.000000, 4374.000000)">
                <g id="social" transform="translate(157.000000, 0.000000)">
                    <path d="M12,2.16224747 C15.2041246,2.16224747 15.5835438,2.17445286 16.8489057,2.23211279 C18.0189394,2.28556397 18.6542508,2.48085017 19.0772306,2.64520202 C19.6372054,2.86279461 20.037037,3.12310606 20.4570707,3.54292929 C20.8768939,3.96275253 21.1369949,4.36258418 21.354798,4.92276936 C21.5189394,5.34553872 21.714436,5.98085017 21.7678872,7.15088384 C21.8255471,8.41624579 21.8377525,8.79587542 21.8377525,12 C21.8377525,15.2039141 21.8255471,15.5835438 21.7678872,16.8489057 C21.714436,18.0189394 21.5189394,18.6542508 21.354798,19.0772306 C21.1369949,19.6374158 20.8768939,20.037037 20.4570707,20.4568603 C20.037037,20.8766835 19.6372054,21.1367845 19.0772306,21.3543771 C18.6542508,21.5189394 18.0189394,21.714436 16.8489057,21.7676768 C15.5837542,21.8255471 15.2045455,21.8377525 12,21.8377525 C8.79566498,21.8377525 8.41624579,21.8255471 7.15109428,21.7676768 C5.98106061,21.714436 5.34574916,21.5189394 4.92276936,21.3543771 C4.36279461,21.1367845 3.96296296,20.8766835 3.54292929,20.4568603 C3.12310606,20.037037 2.86300505,19.6374158 2.6456229,19.0772306 C2.48106061,18.6542508 2.28556397,18.0189394 2.23211279,16.8489057 C2.17445286,15.5835438 2.16224747,15.2039141 2.16224747,12 C2.16224747,8.79587542 2.17445286,8.41624579 2.23211279,7.15088384 C2.28556397,5.98085017 2.48106061,5.34553872 2.6456229,4.92276936 C2.86300505,4.36258418 3.12310606,3.96275253 3.54292929,3.54292929 C3.96296296,3.12310606 4.36279461,2.86279461 4.92276936,2.64520202 C5.34574916,2.48085017 5.98106061,2.28556397 7.15109428,2.23211279 C8.41645623,2.17445286 8.79587542,2.16224747 12,2.16224747 Z M12,5.83754209 C15.4034091,5.83754209 18.1622475,8.59659091 18.1622475,12 C18.1622475,15.4031987 15.4034091,18.1618266 12,18.1618266 C8.59680135,18.1618266 5.83796296,15.4031987 5.83796296,12 C5.83796296,8.59659091 8.59680135,5.83754209 12,5.83754209 Z M12,15.9997896 C9.79103535,15.9997896 8.00021044,14.2089646 8.00021044,12 C8.00021044,9.79061448 9.79103535,8 12,8 C14.2093855,8 16,9.79061448 16,12 C16,14.2089646 14.2093855,15.9997896 12,15.9997896 Z M19.8455387,5.59427609 C19.8455387,6.3895202 19.2007576,7.03409091 18.4055135,7.03409091 C17.6104798,7.03409091 16.9656987,6.3895202 16.9656987,5.59427609 C16.9656987,4.79903199 17.6104798,4.15446128 18.4055135,4.15446128 C19.2007576,4.15446128 19.8455387,4.79903199 19.8455387,5.59427609 Z M11.702862,0 C8.71464646,0.000841750842 8.29229798,0.0155723906 7.05239899,0.071969697 C5.77525253,0.130260943 4.90298822,0.333333333 4.13973064,0.630050505 C3.35037879,0.936658249 2.68139731,1.34701178 2.01409933,2.01388889 C1.34701178,2.68097643 0.936868687,3.35037879 0.630050505,4.1395202 C0.333543771,4.90256734 0.130681818,5.77504209 0.0723905724,7.05239899 C0.0138888889,8.33207071 0,8.74095118 0,12 C0,15.2588384 0.0138888889,15.6675084 0.0723905724,16.9473906 C0.130681818,18.224537 0.333543771,19.0970118 0.630050505,19.8602694 C0.936868687,20.6492003 1.34701178,21.3186027 2.01409933,21.9859007 C2.68139731,22.6529882 3.35037879,23.0633418 4.13973064,23.3699495 C4.90298822,23.6664562 5.77525253,23.8693182 7.05239899,23.927399 C8.33249158,23.9861111 8.74116162,24 12,24 C15.2590488,24 15.6677189,23.9861111 16.947601,23.927399 C18.2249579,23.8693182 19.0972222,23.6664562 19.8604798,23.3699495 C20.6496212,23.0633418 21.3188131,22.6529882 21.9859007,21.9859007 C22.6529882,21.3186027 23.0633418,20.6492003 23.3699495,19.8602694 C23.6664562,19.0970118 23.8695286,18.224537 23.9278199,16.9473906 C23.9844276,15.7074916 23.9991582,15.2851431 24,12.297138 L24,11.7026515 C23.9991582,8.71464646 23.9844276,8.29229798 23.9278199,7.05239899 C23.8695286,5.77504209 23.6664562,4.90256734 23.3699495,4.1395202 C23.0633418,3.35037879 22.6529882,2.68097643 21.9859007,2.01388889 C21.3188131,1.34701178 20.6496212,0.936658249 19.8604798,0.630050505 C19.0972222,0.333333333 18.2249579,0.130260943 16.947601,0.071969697 C15.707702,0.0155723906 15.2853535,0.000841750842 12.2975589,0 L11.702862,0 Z" id="c"></path>
                </g>
            </g>
        </g>
    </g>
</svg>