<?xml version="1.0" encoding="UTF-8"?>
<svg width="24px" height="24px" viewBox="0 0 24 24" version="1.1" xmlns="http://www.w3.org/2000/svg" xmlns:xlink="http://www.w3.org/1999/xlink">
    <!-- Generator: Sketch 52.2 (67145) - http://www.bohemiancoding.com/sketch -->
    <title>in</title>
    <desc>Created with Sketch.</desc>
    <g id="Page-1" stroke="none" stroke-width="1" fill="none" fill-rule="evenodd" opacity="0.6">
        <g id="loopnest" transform="translate(-798.000000, -4374.000000)" fill="#000000">
            <g id="footer" transform="translate(501.000000, 4374.000000)">
                <g id="social" transform="translate(157.000000, 0.000000)">
                    <path d="M163.988144,24 L159.059618,24 L159.059618,15.600999 C159.059618,13.2981073 158.18426,12.0117461 156.362848,12.0117461 C154.380723,12.0117461 153.34575,13.3508 153.34575,15.600999 L153.34575,24 L148.595721,24 L148.595721,8.00029274 L153.34575,8.00029274 L153.34575,10.1547666 C153.34575,10.1547666 154.773504,7.5115677 158.166915,7.5115677 C161.559009,7.5115677 163.988144,9.58392872 163.988144,13.8693842 L163.988144,24 Z M142.928618,5.9046591 C141.310951,5.9046591 140,4.58316943 140,2.9525491 C140,1.32236788 141.310951,0 142.928618,0 C144.546285,0 145.857236,1.32236788 145.857236,2.9525491 C145.857236,4.58316943 144.546285,5.9046591 142.928618,5.9046591 Z M140.475991,24 L145.428888,24 L145.428888,8.00029274 L140.475991,8.00029274 L140.475991,24 Z" id="in"></path>
                </g>
            </g>
        </g>
    </g>
</svg>