<?xml version="1.0" encoding="utf-8"?>
<!-- Generator: Adobe Illustrator 24.3.0, SVG Export Plug-In . SVG Version: 6.00 Build 0)  -->
<svg version="1.1" id="Layer_1" xmlns="http://www.w3.org/2000/svg" xmlns:xlink="http://www.w3.org/1999/xlink" x="0px" y="0px"
	 viewBox="0 0 472 472" style="enable-background:new 0 0 472 472;" xml:space="preserve">
<style type="text/css">
	.st0{fill:#98B9D3;}
	.st1{fill:#50CDEF;}
	.st2{fill:#5DCAF4;}
	.st3{fill:#5DC5F4;}
	.st4{fill:#A8FDFF;}
	.st5{font-family:'Arial-Black';}
	.st6{font-size:144.8412px;}
</style>
<g>
	<path class="st0" d="M368,60h80v352h-80V60z"/>
	<path class="st0" d="M128,164h80v160h-80V164z"/>
	<path class="st0" d="M248,116h80v296h-80V116z"/>
</g>
<path class="st1" d="M224,340c0,61.9-50.1,112-112,112S0,401.9,0,340s50.1-112,112-112S224,278.1,224,340z"/>
<path class="st2" d="M173.5,246.5c29.2,44.4,23.3,103.2-14.3,140.8s-96.4,43.6-140.8,14.3c25,38.1,70.5,57.3,115.2,48.5
	c44.7-8.8,79.6-43.7,88.4-88.4C230.8,317,211.6,271.4,173.5,246.5z"/>
<path class="st3" d="M224,404h248v16H224V404z"/>
<path class="st3" d="M272,436h128v16H272V436z"/>
<path class="st3" d="M416,436h16v16h-16V436z"/>
<path class="st3" d="M128,124h80v16h-80V124z"/>
<path class="st3" d="M248,76h80v16h-80V76z"/>
<path class="st3" d="M368,20h80v16h-80V20z"/>
<text transform="matrix(0.9554 0 0 1 64.7036 394.5859)" class="st4 st5 st6">$</text>
</svg>
