<?xml version="1.0" encoding="utf-8"?>
<!-- Generator: Adobe Illustrator 24.3.0, SVG Export Plug-In . SVG Version: 6.00 Build 0)  -->
<svg version="1.1" id="Layer_1" xmlns="http://www.w3.org/2000/svg" xmlns:xlink="http://www.w3.org/1999/xlink" x="0px" y="0px"
	 viewBox="0 0 512 512" style="enable-background:new 0 0 512 512;" xml:space="preserve">
<style type="text/css">
	.st0{fill:#62A3E5;}
	.st1{fill:#A8EBFA;}
	.st2{fill:#76E2F8;}
	.st3{fill:#ADC2F2;}
	.st4{fill:#A8FDFF;}
	.st5{fill:#A6E2F7;}
</style>
<path class="st0" d="M327.5,143c0,7.8-6.2,14-14,14h-113c-7.8,0-14-6.2-14-14s6.2-14,14-14h113C321.3,129,327.5,135.1,327.5,143z"/>
<path class="st0" d="M327.5,395c0,7.8-6.2,14-14,14h-113c-7.8,0-14-6.2-14-14s6.2-14,14-14h113C321.3,381,327.5,387.2,327.5,395z"/>
<path class="st0" d="M327.5,395c0,7.8-6.2,14-14,14h-56.9v-28h56.9C321.3,381,327.5,387.2,327.5,395z"/>
<path class="st0" d="M313.5,157h-56.9v-28h56.9c7.8,0,14,6.2,14,14S321.3,157,313.5,157z"/>
<path class="st1" d="M130.5,227v56c0,7.8-6.2,14-14,14s-14-6.2-14-14v-56c0-7.8,6.2-14,14-14S130.5,219.1,130.5,227z"/>
<path class="st2" d="M411.5,227v56c0,7.8-6.2,14-14,14c-7.8,0-14-6.2-14-14v-56c0-7.8,6.2-14,14-14C405.4,213,411.5,219.1,411.5,227
	z"/>
<path class="st0" d="M212.6,74.1l-47.1-1.1l-49,56l-28,54.6l28,57.4c2.5,0,4.8-0.6,7-2l84.3-49.9c0.6-0.3,1.1-0.8,1.7-1.1
	c3.1-2.8,5-7,5-10.9V81.1C214.5,78.6,214,76,212.6,74.1z"/>
<path class="st3" d="M67.5,72.9l-47.1,1.1c-1.4,2.2-2,4.5-2,7v96.1c0,3.9,2,8.1,5,10.9c0.6,0.3,86,51,86,51c2.2,1.4,4.5,2,7,2V129
	L67.5,72.9z"/>
<path class="st4" d="M212.6,74.1L116.5,129L20.4,74.1c0.3-0.3,0.6-0.8,0.8-1.1c1.1-1.7,2.5-2.8,4.2-3.9l84-51.1c2.2-1.4,4.8-2,7-2
	s4.8,0.6,7,2l84,51.1c1.7,1.1,3.1,2.5,4.2,3.9C212,73.2,212.3,73.8,212.6,74.1z"/>
<path class="st5" d="M212.6,74.1L116.5,129V16c2.2,0,4.8,0.6,7,2l84,51.1c1.7,1.1,3.1,2.5,4.2,3.9C212,73.2,212.3,73.8,212.6,74.1z"
	/>
<path class="st0" d="M212.6,326.1l-47.1-1.1l-49,56l-28,55.5l28,57.4c2.5,0,4.8-0.6,7-2l84.3-49.9c0.6-0.3,1.1-0.8,1.7-1.1
	c3.1-2.8,5-7,5-10.9v-97C214.5,330.6,214,328.1,212.6,326.1z"/>
<path class="st3" d="M67.5,325l-47.1,1.1c-1.4,2.2-2,4.5-2,7v97c0,3.9,2,8.1,5,10.9c0.6,0.3,86,51,86,51c2.2,1.4,4.5,2,7,2V381
	L67.5,325z"/>
<path class="st4" d="M212.6,326.1L116.5,381l-96.1-54.9c0.3-0.3,0.6-0.8,0.8-1.1c1.1-1.7,2.5-2.8,4.2-3.9l84-50.1c2.2-1.4,4.8-2,7-2
	s4.8,0.6,7,2l84,50.1c1.7,1.1,3.1,2.5,4.2,3.9C212,325.3,212.3,325.9,212.6,326.1z"/>
<path class="st5" d="M212.6,326.1L116.5,381V269c2.2,0,4.8,0.6,7,2l84,50.1c1.7,1.1,3.1,2.5,4.2,3.9
	C212,325.3,212.3,325.9,212.6,326.1z"/>
<path class="st0" d="M493.6,326.1l-47.1-1.1l-49,56l-28,55.5l28,57.4c2.5,0,4.8-0.6,7-2l84.3-49.9c0.6-0.3,1.1-0.8,1.7-1.1
	c3.1-2.8,5-7,5-10.9v-97C495.5,330.6,495,328.1,493.6,326.1z"/>
<path class="st3" d="M348.5,325l-47.1,1.1c-1.4,2.2-2,4.5-2,7v97c0,3.9,2,8.1,5,10.9c0.6,0.3,86,51,86,51c2.2,1.4,4.5,2,7,2V381
	L348.5,325z"/>
<path class="st4" d="M493.6,326.1L397.5,381l-96.1-54.9c0.3-0.3,0.6-0.8,0.8-1.1c1.1-1.7,2.5-2.8,4.2-3.9l84-50.1c2.2-1.4,4.8-2,7-2
	c2.2,0,4.8,0.6,7,2l84,50.1c1.7,1.1,3.1,2.5,4.2,3.9C493,325.3,493.3,325.9,493.6,326.1z"/>
<path class="st5" d="M493.6,326.1L397.5,381V269c2.2,0,4.8,0.6,7,2l84,50.1c1.7,1.1,3.1,2.5,4.2,3.9
	C493,325.3,493.3,325.9,493.6,326.1z"/>
<path class="st0" d="M493.6,74.1l-47.1-1.1l-49,56l-28,54.6l28,57.4c2.5,0,4.8-0.6,7-2l84.3-49.9c0.6-0.3,1.1-0.8,1.7-1.1
	c3.1-2.8,5-7,5-10.9V81.1C495.5,78.6,495,76,493.6,74.1z"/>
<path class="st3" d="M348.5,72.9l-47.1,1.1c-1.4,2.2-2,4.5-2,7v96.1c0,3.9,2,8.1,5,10.9c0.6,0.3,86,51,86,51c2.2,1.4,4.5,2,7,2V129
	L348.5,72.9z"/>
<path class="st4" d="M493.6,74.1L397.5,129l-96.1-54.9c0.3-0.3,0.6-0.8,0.8-1.1c1.1-1.7,2.5-2.8,4.2-3.9l84-51.1c2.2-1.4,4.8-2,7-2
	c2.2,0,4.8,0.6,7,2l84,51.1c1.7,1.1,3.1,2.5,4.2,3.9C493,73.2,493.3,73.8,493.6,74.1z"/>
<path class="st5" d="M493.6,74.1L397.5,129V16c2.2,0,4.8,0.6,7,2l84,51.1c1.7,1.1,3.1,2.5,4.2,3.9C493,73.2,493.3,73.8,493.6,74.1z"
	/>
</svg>
