<?xml version="1.0" encoding="utf-8"?>
<!-- Generator: Adobe Illustrator 24.3.0, SVG Export Plug-In . SVG Version: 6.00 Build 0)  -->
<svg version="1.1" id="Capa_1" xmlns="http://www.w3.org/2000/svg" xmlns:xlink="http://www.w3.org/1999/xlink" x="0px" y="0px"
	 viewBox="0 0 512 512" style="enable-background:new 0 0 512 512;" xml:space="preserve">
<style type="text/css">
	.st0{fill:#98B9D3;}
	.st1{fill:#EAF4F4;}
	.st2{fill:#CAE8EA;}
	.st3{fill:#A7D2DB;}
	.st4{fill:#50CDEF;}
	.st5{fill:#A8FDFF;}
</style>
<path class="st0" d="M486.3,73.9v235.3l-120,132.9h-339V73.9H486.3z"/>
<path class="st0" d="M486.3,73.9v368.1h-120H256.8V73.9H486.3z"/>
<path class="st1" d="M432.2,169.3V274l-64,111.8H122.4v-13.7c0-14.5-11.8-25.4-27.3-25.4H81.5V169.3h13.7
	c15.6,0,27.3-10.9,27.3-25.4v-13.7h268.8v13.7c0,14.5,11.7,25.4,27.3,25.4H432.2z"/>
<path class="st2" d="M432.2,169.3V274l-64,111.8H256.8V130.2h134.4v13.7c0,14.5,11.7,25.4,27.3,25.4L432.2,169.3L432.2,169.3z"/>
<g>
	<path class="st2" d="M197.3,221.4h119.2v27.4H197.3V221.4z"/>
	<path class="st2" d="M227.2,276.1h59.3v27.4h-59.3V276.1z"/>
</g>
<g>
	<path class="st3" d="M256.8,276.1h29.6v27.4h-29.6V276.1z"/>
	<path class="st3" d="M256.8,221.4h59.6v27.4h-59.6L256.8,221.4z"/>
</g>
<path class="st3" d="M426.3,346.1v127.2l-45.9-20.5l-45.9,20.5V346.1H426.3z"/>
<path class="st2" d="M426.3,346.1v127.2l-45.9-20.5V346.1H426.3z"/>
<path class="st4" d="M444.4,302.9c0,34.8-28.7,63.2-64,63.2c-35.3,0-64-28.3-64-63.2c0-34.8,28.7-63.2,64-63.2
	C415.7,239.8,444.4,268.1,444.4,302.9z"/>
<path class="st4" d="M444.4,302.9c0,34.8-28.7,63.2-64,63.2V239.8C415.7,239.8,444.4,268.1,444.4,302.9z"/>
<path class="st5" d="M369.2,291.7h22.5v22.5h-22.5V291.7z"/>
<path class="st5" d="M380.4,291.7h11.3v22.5h-11.3V291.7z"/>
</svg>
