<?xml version="1.0" encoding="utf-8"?>
<!-- Generator: Adobe Illustrator 24.3.0, SVG Export Plug-In . SVG Version: 6.00 Build 0)  -->
<svg version="1.1" id="Layer_1" xmlns="http://www.w3.org/2000/svg" xmlns:xlink="http://www.w3.org/1999/xlink" x="0px" y="0px"
	 viewBox="0 0 512 512" style="enable-background:new 0 0 512 512;" xml:space="preserve">
<style type="text/css">
	.st0{fill:#98B9D3;}
	.st1{fill:#56D3F1;}
	.st2{fill:#50CDEF;}
</style>
<path class="st0" d="M498.6,123.8H389.2c-41,0-42.3-30.3-74-30.3H295c1.7-6.6,1.7-13.6,0-20.2h20.2c39.7,0,43.3,30.3,74,30.3h109.4
	c5.6,0,10.1,4.5,10.1,10.1C508.7,119.3,504.2,123.8,498.6,123.8z"/>
<path class="st0" d="M216.8,93.5h-20.2c-31.6,0-31.6,30.3-73.3,30.3h-110c-5.6,0-10.1-4.5-10.1-10.1c0-5.6,4.5-10.1,10.1-10.1h110
	c31.5,0,31.5-30.3,73.2-30.3h20.2C215,79.9,215.1,86.9,216.8,93.5z"/>
<path class="st1" d="M145.3,319.2L84.1,144L22.8,319.2c-2.3,5.1-8.3,7.4-13.4,5.1c-4.5-2-6.9-7-5.6-11.7l66-188.8h28.5l66,188.8
	c1.4,5.4-1.9,10.9-7.3,12.3C152.3,326.1,147.4,323.7,145.3,319.2L145.3,319.2z"/>
<path class="st1" d="M489.1,319.2L427.8,144l-61.3,174.9c-2.3,5.1-8.3,7.4-13.4,5.1c-4.5-2-6.9-7-5.6-11.7l66-188.5h28.5l66,188.8
	c1.4,5.4-1.9,10.9-7.3,12.3C496.1,326.1,491.1,323.7,489.1,319.2L489.1,319.2z"/>
<path class="st0" d="M286.3,32.8v23.9C271,39.9,245,38.7,228.3,54c-0.9,0.8-1.8,1.7-2.7,2.7c0-19.7-2.5-34.4,10.9-46.5
	c12.9-10.7,32-9,42.7,3.9C283.7,19.3,286.1,25.9,286.3,32.8z"/>
<path class="st0" d="M286.3,110.1v296.8h-60.7c0-331.7-1.5-297.5,3.3-293.2c16.7,14.8,42.3,13.3,57.1-3.4
	C286.1,110.2,286.2,110.1,286.3,110.1z"/>
<path class="st0" d="M397.5,487.8v10.1c0,5.6-4.5,10.1-10.1,10.1H124.5c-5.6,0-10.1-4.5-10.1-10.1v-10.1c0-18.7,12.9-35,31.1-39.3
	c6.6-1.1-7.7-1.1,211.5-1.1C379.4,447.3,397.5,465.4,397.5,487.8z"/>
<path class="st0" d="M366.4,448.4c-6.6-1.1,7.7-1.1-211.5-1.1c-3.1,0-6.3,0.4-9.3,1.1c4.4-24.1,25.3-41.6,49.7-41.6h121.3
	C341.1,406.9,362,424.4,366.4,448.4z"/>
<path class="st2" d="M296.4,83.4c0,22.3-18,40.5-40.4,40.5c-22.3,0-40.5-18-40.5-40.4c0-9.9,3.6-19.4,10.1-26.8
	c14.8-16.8,40.3-18.4,57.1-3.6C291.4,60.8,296.4,71.8,296.4,83.4z"/>
<path class="st0" d="M276.2,83.4c0,11.2-9,20.2-20.2,20.2c-11.2,0-20.2-9-20.2-20.2c0-4.9,1.8-9.7,5.1-13.4
	c7.4-8.4,20.2-9.2,28.5-1.8C273.7,72.1,276.2,77.6,276.2,83.4z"/>
<path class="st1" d="M498.6,305.8c-146.5,0-151.7-3.8-151.7,10.1c0,44.7,36.2,80.9,80.9,80.9C500.8,396.8,525.4,305.8,498.6,305.8z
	 M427.8,376.6c-29.6,0-54.9-21.3-59.9-50.6h119.7C482.8,355.2,457.4,376.6,427.8,376.6z"/>
<path class="st1" d="M487.7,326c-5.5,33.1-36.7,55.4-69.7,50c-25.6-4.2-45.7-24.3-50-50H487.7z"/>
<path class="st1" d="M154.9,305.8c-146.5,0-151.7-3.8-151.7,10.1c0,44.7,36.2,80.9,80.9,80.9C157.1,396.8,181.6,305.8,154.9,305.8z
	 M84.1,376.6c-29.6,0-54.9-21.3-59.9-50.6h119.7C139,355.2,113.7,376.6,84.1,376.6z"/>
<path class="st1" d="M143.9,326c-5.5,33.1-36.7,55.4-69.7,50c-25.6-4.2-45.7-24.3-50-50H143.9z"/>
</svg>
