<?xml version="1.0" encoding="utf-8"?>
<!-- Generator: Adobe Illustrator 24.3.0, SVG Export Plug-In . SVG Version: 6.00 Build 0)  -->
<svg version="1.1" id="Layer_1" xmlns="http://www.w3.org/2000/svg" xmlns:xlink="http://www.w3.org/1999/xlink" x="0px" y="0px"
	 viewBox="0 0 512 512" style="enable-background:new 0 0 512 512;" xml:space="preserve">
<style type="text/css">
	.st0{fill:#98B9D3;}
	.st1{fill:#5DCAF4;}
	.st2{fill:#A8FDFF;}
</style>
<path class="st0" d="M62.5,407.1h249.8c16.6,0,30,13.4,30,30v30l0,0H32.5l0,0v-30C32.5,420.5,46,407.1,62.5,407.1z"/>
<path class="st0" d="M22.5,467h329.7c11,0,20,8.9,20,20l0,0c0,11-8.9,20-20,20H22.5c-11,0-20-8.9-20-20l0,0
	C2.6,476,11.5,467,22.5,467z"/>
<path class="st1" d="M93.3,179.5L234.5,38.3l113,113L206.3,292.5L93.3,179.5z"/>
<path class="st2" d="M262.8,9.9l113,113c7.8,7.8,7.8,20.5,0,28.3l0,0c-7.8,7.8-20.5,7.8-28.3,0l-113-113c-7.8-7.8-7.8-20.5,0-28.3
	l0,0C242.3,2,255,2,262.8,9.9z"/>
<path class="st2" d="M93.3,179.5l113,113c7.8,7.8,7.8,20.5,0,28.3l0,0c-7.8,7.8-20.5,7.8-28.3,0l-113-113c-7.8-7.8-7.8-20.5,0-28.3
	l0,0C72.8,171.7,85.5,171.7,93.3,179.5z"/>
<path class="st0" d="M149.8,66.5L178,94.8L149.8,123l-28.3-28.2c-7.8-7.8-7.8-20.5,0-28.3c0,0,0,0,0,0
	C129.3,58.7,142,58.7,149.8,66.5C149.8,66.5,149.8,66.5,149.8,66.5z"/>
<path class="st0" d="M474.7,448L262.8,236.1l28.3-28.3L503,419.7c7.8,7.8,7.8,20.5,0,28.3c0,0,0,0,0,0
	C495.2,455.8,482.5,455.8,474.7,448C474.7,448,474.7,448,474.7,448L474.7,448z"/>
</svg>
