<?xml version="1.0" encoding="utf-8"?>
<!-- Generator: Adobe Illustrator 24.1.2, SVG Export Plug-In . SVG Version: 6.00 Build 0)  -->
<svg version="1.1" id="Layer_1" xmlns="http://www.w3.org/2000/svg" xmlns:xlink="http://www.w3.org/1999/xlink" x="0px" y="0px"
	 viewBox="0 0 334 42" style="enable-background:new 0 0 334 42;" xml:space="preserve">
<style type="text/css">
	.st0{fill-rule:evenodd;clip-rule:evenodd;fill:#FFFFFF;}
	.st1{fill-rule:evenodd;clip-rule:evenodd;fill:url(#Combined-Shape_2_);}
</style>
<path id="Combined-Shape" class="st0" d="M60.4,28.3V9.7l2.7-0.3v18.9c0,0.8,0.3,1.2,1,1.2c0.4,0,0.7-0.1,1-0.2l0.7,1.9
	c-0.6,0.3-1.3,0.5-2.1,0.5C61.7,31.7,60.4,30.5,60.4,28.3z M70.7,23.7c0,4,1.4,5.9,4,5.9s4-1.9,4-5.9s-1.4-5.9-4-5.9
	S70.7,19.6,70.7,23.7z M81.6,23.6c0,4.8-2.5,8.1-6.9,8.1s-6.9-3.2-6.9-8.1c0-4.8,2.5-8.1,6.9-8.1S81.6,18.7,81.6,23.6z M87.8,23.7
	c0,4,1.4,5.9,4,5.9s4-1.9,4-5.9s-1.4-5.9-4-5.9S87.8,19.6,87.8,23.7z M98.7,23.6c0,4.8-2.5,8.1-6.9,8.1s-6.9-3.2-6.9-8.1
	c0-4.8,2.5-8.1,6.9-8.1S98.7,18.7,98.7,23.6z M113.1,23.6c0-4-1.2-5.9-3.5-5.9c-1.6,0-2.9,1.2-3.7,2.4v7.5c0.8,1.2,2,1.9,3.4,1.9
	C111.7,29.5,113.1,27.7,113.1,23.6z M116,23.6c0,4.7-2.1,8.1-6.1,8.1c-1.7,0-3-0.6-4-1.8v7.4l-2.7,0.3V15.9h2.3l0.2,2.1
	c1.1-1.6,2.8-2.4,4.6-2.4C114.3,15.6,116,18.8,116,23.6z M132.3,20.3v11.1h-2.7V20.7c0-2.3-0.9-3-2.4-3c-1.7,0-2.9,1.1-3.9,2.7v11
	h-2.7V15.9h2.3l0.2,2.3c1.1-1.6,2.7-2.6,4.7-2.6C130.7,15.6,132.3,17.4,132.3,20.3z M146.8,22.4c0-3-1.2-4.7-3.6-4.7
	c-2.1,0-3.4,1.4-3.6,4.9h7.2L146.8,22.4L146.8,22.4z M149.4,24.6h-9.9c0.3,3.6,1.9,5,4.2,5c1.5,0,2.7-0.4,4-1.3l1.2,1.6
	c-1.5,1.2-3.3,1.9-5.4,1.9c-4.3,0-6.8-3-6.8-7.9c0-4.8,2.4-8.2,6.4-8.2c4.2,0,6.4,2.9,6.4,7.6C149.4,23.7,149.4,24.2,149.4,24.6z
	 M163.3,17.3l-1.1,1.7c-1.4-0.9-2.6-1.3-4-1.3c-1.8,0-2.8,0.8-2.8,2c0,1.3,0.8,1.8,3.3,2.5c3.3,0.8,5.1,2.1,5.1,4.8
	c0,3.2-3,4.7-6.1,4.7c-2.6,0-4.5-0.9-5.8-2l1.4-1.6c1.2,0.9,2.7,1.5,4.3,1.5c2,0,3.3-0.9,3.3-2.3c0-1.5-0.8-2.1-3.8-2.9
	c-3.3-0.9-4.7-2.3-4.7-4.5c0-2.5,2.4-4.3,5.6-4.3C160.2,15.6,161.9,16.2,163.3,17.3z M175.4,30.7c-1,0.7-2.1,1.1-3.5,1.1
	c-2.6,0-4.2-1.5-4.2-4.4v-9.3H165V16h2.7v-3.5l2.7-0.3V16h3.7l-0.3,2.1h-3.4v9.2c0,1.6,0.5,2.3,1.8,2.3c0.7,0,1.3-0.2,2.1-0.7
	L175.4,30.7z M193.7,27.3v-3.5h-2c-2.8,0-4.3,1.1-4.3,3.2c0,1.8,0.9,2.8,2.7,2.8C191.6,29.7,192.8,28.9,193.7,27.3z M197.6,29.9
	l-0.6,1.9c-1.6-0.2-2.6-0.8-3-2.3c-1.1,1.6-2.7,2.3-4.6,2.3c-3.1,0-4.9-1.9-4.9-4.7c0-3.3,2.5-5.1,6.8-5.1h2.4v-1.1
	c0-2.2-1.1-3.1-3.2-3.1c-1.1,0-2.6,0.3-4.2,0.8l-0.7-2c1.9-0.7,3.6-1.1,5.3-1.1c3.7,0,5.4,1.9,5.4,5.1v7.1
	C196.4,29.1,196.9,29.6,197.6,29.9z M212.2,17.3l-1.3,1.7c-1.1-0.8-2-1.1-3.3-1.1c-2.4,0-4,1.9-4,5.9s1.5,5.7,4,5.7
	c1.3,0,2.2-0.4,3.4-1.2l1.2,1.8c-1.4,1.1-2.9,1.7-4.7,1.7c-4.2,0-6.7-3-6.7-7.9s2.6-8.2,6.7-8.2C209.3,15.6,210.8,16.1,212.2,17.3z
	 M226,17.3l-1.3,1.7c-1.1-0.8-2-1.1-3.3-1.1c-2.4,0-4,1.9-4,5.9s1.5,5.7,4,5.7c1.3,0,2.2-0.4,3.4-1.2l1.2,1.8
	c-1.4,1.1-2.9,1.7-4.7,1.7c-4.2,0-6.7-3-6.7-7.9s2.6-8.2,6.7-8.2C223.1,15.6,224.5,16.1,226,17.3z M238.4,22.4c0-3-1.2-4.7-3.6-4.7
	c-2.1,0-3.4,1.4-3.6,4.9h7.2L238.4,22.4L238.4,22.4z M241,24.6h-9.9c0.3,3.6,1.9,5,4.2,5c1.5,0,2.7-0.4,4-1.3l1.2,1.6
	c-1.5,1.2-3.3,1.9-5.4,1.9c-4.3,0-6.8-3-6.8-7.9c0-4.8,2.4-8.2,6.4-8.2c4.2,0,6.4,2.9,6.4,7.6C241,23.7,241,24.2,241,24.6z
	 M245.3,28.3V9.7l2.7-0.3v18.9c0,0.8,0.3,1.2,1,1.2c0.4,0,0.7-0.1,1-0.2l0.7,1.9c-0.6,0.3-1.3,0.5-2.1,0.5
	C246.6,31.7,245.3,30.5,245.3,28.3z M262.8,22.4c0-3-1.2-4.7-3.6-4.7c-2.1,0-3.4,1.4-3.6,4.9h7.2V22.4z M265.4,24.6h-9.9
	c0.3,3.6,1.9,5,4.2,5c1.5,0,2.7-0.4,4-1.3l1.2,1.6c-1.5,1.2-3.3,1.9-5.4,1.9c-4.3,0-6.8-3-6.8-7.9c0-4.8,2.4-8.2,6.4-8.2
	c4.2,0,6.4,2.9,6.4,7.6C265.5,23.7,265.4,24.2,265.4,24.6z M278.2,15.8l-0.5,2.6c-0.5-0.1-0.8-0.2-1.3-0.2c-1.9,0-3,1.4-3.7,4.3v8.8
	H270V15.9h2.3l0.3,3.1c0.8-2.3,2.3-3.5,4.1-3.5C277.1,15.6,277.7,15.6,278.2,15.8z M288.4,27.3v-3.5h-2c-2.8,0-4.3,1.1-4.3,3.2
	c0,1.8,0.9,2.8,2.7,2.8C286.3,29.7,287.5,28.9,288.4,27.3z M292.3,29.9l-0.6,1.9c-1.6-0.2-2.6-0.8-3-2.3c-1.1,1.6-2.7,2.3-4.6,2.3
	c-3.1,0-4.9-1.9-4.9-4.7c0-3.3,2.5-5.1,6.8-5.1h2.4v-1.1c0-2.2-1.1-3.1-3.2-3.1c-1.1,0-2.6,0.3-4.2,0.8l-0.7-2
	c1.9-0.7,3.6-1.1,5.3-1.1c3.7,0,5.4,1.9,5.4,5.1v7.1C291.1,29.1,291.6,29.6,292.3,29.9z M304.4,30.7c-1,0.7-2.1,1.1-3.5,1.1
	c-2.6,0-4.2-1.5-4.2-4.4v-9.3H294V16h2.7v-3.5l2.7-0.3V16h3.7l-0.3,2.1h-3.4v9.2c0,1.6,0.5,2.3,1.8,2.3c0.7,0,1.3-0.2,2.1-0.7
	L304.4,30.7z M308.7,23.7c0,4,1.4,5.9,4,5.9s4-1.9,4-5.9s-1.4-5.9-4-5.9S308.7,19.6,308.7,23.7z M319.6,23.6c0,4.8-2.5,8.1-6.9,8.1
	s-6.9-3.2-6.9-8.1c0-4.8,2.5-8.1,6.9-8.1C317.1,15.6,319.6,18.7,319.6,23.6z M332.3,15.8l-0.5,2.6c-0.5-0.1-0.8-0.2-1.3-0.2
	c-1.9,0-3,1.4-3.7,4.3v8.8h-2.7V15.9h2.3l0.3,3.1c0.8-2.3,2.3-3.5,4.1-3.5C331.2,15.6,331.8,15.6,332.3,15.8z"/>
<linearGradient id="Combined-Shape_2_" gradientUnits="userSpaceOnUse" x1="9.0373" y1="44.391" x2="38.7873" y2="14.641" gradientTransform="matrix(1 0 0 -1 0 44)">
	<stop  offset="1.133424e-06" style="stop-color:#006BCC"/>
	<stop  offset="0.1676" style="stop-color:#0272CC"/>
	<stop  offset="0.4026" style="stop-color:#0984CE"/>
	<stop  offset="0.6773" style="stop-color:#13A2D0"/>
	<stop  offset="0.98" style="stop-color:#22CBD3"/>
	<stop  offset="1" style="stop-color:#23CED3"/>
</linearGradient>
<path id="Combined-Shape_1_" class="st1" d="M11.3,10.3L6.5,2.2H42l2.7,4.4L14.4,6.8l1.7,2.8h20.2h9.4L28.1,40.1h-5.2l14.7-26h-4
	l-9.8,17.7l-4.6,8.3L1.4,9.4l2.5-4.5l15.4,26l2.1-3.7L11.3,10.3z M18.7,14l5.1,8.6l4.7-8.6C28.5,14,18.7,14,18.7,14z"/>
</svg>
