<?xml version="1.0" encoding="utf-8"?>
<!-- Generator: Adobe Illustrator 24.3.0, SVG Export Plug-In . SVG Version: 6.00 Build 0)  -->
<svg version="1.1" id="Layer_1" xmlns="http://www.w3.org/2000/svg" xmlns:xlink="http://www.w3.org/1999/xlink" x="0px" y="0px"
	 viewBox="0 0 512 512" style="enable-background:new 0 0 512 512;" xml:space="preserve">
<style type="text/css">
	.st0{fill:#62A3E5;}
	.st1{fill:#A8FDFF;}
	.st2{fill:#ADC2F2;}
	.st3{fill:#A6E2F7;}
	.st4{fill:#76E2F8;}
</style>
<path class="st0" d="M137.7,374.3c-17.6-17.6-46-17.6-63.6,0c-3.6,3.6-6.6,7.9-8.7,12.5L10.4,501.6l114.8-54.9
	c4.7-2.1,8.9-5.1,12.5-8.7C155.3,420.3,155.3,391.9,137.7,374.3z"/>
<path class="st0" d="M137.7,437.9c-3.6,3.6-7.9,6.6-12.5,8.7L10.4,501.6l127.3-127.3C155.3,391.9,155.3,420.3,137.7,437.9z"/>
<path class="st1" d="M329.1,336.5l-131.9,51.3L222.1,512l24.9-10.6C311.4,473.8,345.9,404.4,329.1,336.5z"/>
<path class="st2" d="M175.5,182.9C107.6,166.1,38.2,200.6,10.6,265L0,289.9l124.2,24.8L175.5,182.9z"/>
<path class="st0" d="M486.1,152.9l-83.8-41.4l-0.6-1.1L359.2,26C445.3-6.7,499.8,1.2,511.9,0.1C511.5,6.5,516.4,72.9,486.1,152.9z"
	/>
<path class="st0" d="M402.3,111.5l-0.6-1.1L511.9,0.1c-0.4,6.4,4.5,72.8-25.9,152.7L402.3,111.5z"/>
<path class="st3" d="M486.1,152.9L359.2,26c-78.1,29.7-159.5,95.8-205.6,172.4c-3.6,6.2-52.8,88-56,93.3l8.3,50.7l63.6,63.6
	l50.7,8.3c35.4-21,93.3-56,93.6-56.2C390.4,312.1,456.1,231.1,486.1,152.9z"/>
<path class="st2" d="M313.8,358.1c-0.2,0.2-58.1,35.2-93.6,56.2l-50.7-8.3l-31.8-31.8L422.6,89.4l63.4,63.4
	C456.1,231.1,390.4,312.1,313.8,358.1z"/>
<path class="st3" d="M220.3,414.4l-53,31.8L65.8,344.8l31.8-53L220.3,414.4z"/>
<path class="st2" d="M220.3,414.4l-53,31.8l-50.7-50.7l42.4-42.4L220.3,414.4z"/>
<path class="st0" d="M349.9,162.1c-23.3-23.3-61.5-23.3-84.9,0c-23.3,23.3-23.3,61.5,0,84.9c23.3,23.3,61.5,23.3,84.9,0
	C373.2,223.7,373.2,185.5,349.9,162.1z"/>
<path d="M233.2,257.6l21.2,21.2L137.7,395.5l-21.2-21.2L233.2,257.6z"/>
<path class="st4" d="M105.9,384.9l127.3-127.3l21.2,21.2L127.1,406.1L105.9,384.9z"/>
<path class="st4" d="M127.1,406.1l-10.6-10.6l127.3-127.3l10.6,10.6L127.1,406.1z"/>
<path class="st0" d="M349.9,247c-23.3,23.3-61.5,23.3-84.9,0l84.9-84.9C373.2,185.5,373.2,223.7,349.9,247z"/>
</svg>
