<?xml version="1.0" encoding="utf-8"?>
<!-- Generator: Adobe Illustrator 24.3.0, SVG Export Plug-In . SVG Version: 6.00 Build 0)  -->
<svg version="1.1" id="Capa_1" xmlns="http://www.w3.org/2000/svg" xmlns:xlink="http://www.w3.org/1999/xlink" x="0px" y="0px"
	 viewBox="0 0 512 512" style="enable-background:new 0 0 512 512;" xml:space="preserve">
<style type="text/css">
	.st0{fill:#98B9D3;}
	.st1{fill:#5DCAF4;}
	.st2{fill:#A8FDFF;}
</style>
<path class="st0" d="M256,0c-76.5,0.1-138.6,62.1-138.7,138.7V224c0,5.9,4.8,10.7,10.7,10.7h42.7c5.9,0,10.7-4.8,10.7-10.7v-85.3
	c0-41.2,33.4-74.7,74.7-74.7s74.7,33.4,74.7,74.7v42.7c0,5.9,4.8,10.7,10.7,10.7H384c5.9,0,10.7-4.8,10.7-10.7v-42.7
	C394.6,62.1,332.5,0.1,256,0z"/>
<path class="st1" d="M128,213.3h256c29.5,0,53.3,23.9,53.3,53.3v192c0,29.5-23.9,53.3-53.3,53.3H128c-29.5,0-53.3-23.9-53.3-53.3
	v-192C74.7,237.2,98.5,213.3,128,213.3z"/>
<path class="st2" d="M309.3,330.7c0.1-29.5-23.7-53.4-53.1-53.6s-53.4,23.7-53.6,53.1c-0.1,20.4,11.4,39,29.7,48l-8.2,57.6
	c-0.8,5.8,3.2,11.2,9.1,12.1c0.5,0.1,1,0.1,1.5,0.1h42.7c5.9,0.1,10.7-4.7,10.8-10.6c0-0.5,0-1.1-0.1-1.6l-8.2-57.6
	C297.8,369.2,309.2,350.8,309.3,330.7z"/>
</svg>
